<?xml version="1.0" standalone="no"?>
<!DOCTYPE svg PUBLIC "-//W3C//DTD SVG 20010904//EN"
 "http://www.w3.org/TR/2001/REC-SVG-20010904/DTD/svg10.dtd">
<svg version="1.0" xmlns="http://www.w3.org/2000/svg"
 width="1235.000000pt" height="1235.000000pt" viewBox="0 0 1235.000000 1235.000000"
 preserveAspectRatio="xMidYMid meet">
<metadata>
Created by potrace 1.11, written by Peter Selinger 2001-2013
</metadata>
<g transform="translate(0.000000,1235.000000) scale(0.100000,-0.100000)"
fill="#000000" stroke="none">
<path d="M9405 8952 c-28 -3 -150 -24 -220 -37 -64 -12 -219 -61 -295 -93
-355 -147 -658 -388 -868 -689 -31 -45 -59 -82 -62 -82 -3 -1 -18 20 -35 47
-94 149 -293 356 -457 473 -348 251 -717 371 -1138 373 -187 1 -265 -6 -424
-39 -336 -68 -624 -213 -903 -451 l-48 -42 0 239 c0 153 -4 239 -10 240 -58 4
-587 1 -591 -4 -4 -3 -6 -116 -7 -251 l0 -244 -83 72 c-200 175 -445 308 -724
394 -61 19 -88 25 -150 37 -14 3 -47 9 -75 14 -114 22 -330 33 -450 22 l-60
-6 0 -1932 0 -1933 75 -1 c41 0 177 -1 302 -2 l228 -2 0 1603 c0 881 3 1602 6
1602 16 0 188 -77 245 -111 334 -195 584 -539 649 -894 5 -27 12 -63 15 -79
17 -86 22 -313 23 -1111 0 -484 1 -908 1 -942 l1 -62 299 0 c228 0 300 2 303
12 2 6 4 121 4 255 -1 133 1 242 3 242 2 0 31 -24 65 -53 248 -217 557 -373
871 -441 151 -32 257 -43 416 -44 111 -1 154 2 299 22 238 31 525 142 755 291
192 124 420 339 539 508 l68 97 52 -73 c51 -73 124 -165 159 -197 17 -16 17
-21 -7 -116 -13 -54 -28 -119 -31 -144 -4 -25 -9 -54 -11 -65 -26 -130 -22
-451 7 -620 110 -642 529 -1183 1118 -1446 162 -72 368 -135 504 -154 27 -3
59 -9 70 -11 12 -3 90 -7 172 -11 404 -16 793 92 1135 314 196 128 338 265
523 503 72 93 190 314 241 453 212 572 160 1172 -144 1677 -276 459 -701 778
-1210 911 l-45 11 101 29 c827 232 1419 995 1428 1839 l1 65 -303 0 -302 0 -1
-50 c0 -27 -2 -59 -4 -70 -2 -11 -6 -45 -9 -75 -8 -82 -50 -238 -90 -336 -100
-246 -260 -442 -493 -607 -83 -58 -287 -157 -324 -157 -5 0 -9 288 -9 655 l0
655 -304 0 -305 0 0 -951 c0 -523 -2 -953 -4 -955 -2 -3 -21 -7 -42 -9 -63 -8
-200 -35 -255 -50 -89 -24 -130 -37 -213 -68 -315 -119 -589 -311 -810 -569
l-67 -77 -40 69 c-81 138 -134 282 -166 446 -18 95 -26 338 -13 408 4 23 9 55
12 71 73 443 401 843 832 1016 146 58 280 85 488 98 16 1 17 22 17 301 l0 301
-97 -3 c-54 -1 -111 -4 -128 -6z m-2818 -631 c268 -56 490 -176 683 -371 115
-115 186 -211 249 -337 110 -218 149 -390 145 -643 -9 -553 -353 -1037 -880
-1236 -38 -14 -76 -27 -84 -29 -8 -2 -33 -8 -55 -14 -103 -27 -216 -39 -350
-36 -141 3 -189 9 -310 41 -100 27 -98 26 -138 42 -16 7 -30 12 -33 12 -17 0
-195 96 -260 141 -110 75 -277 244 -352 357 -111 166 -187 362 -217 552 -17
103 -13 317 7 427 51 285 173 518 378 723 221 221 489 354 780 386 30 4 56 8
58 9 1 1 64 1 140 0 92 -2 171 -10 239 -24z m3304 -2603 l0 -678 42 -1 c49 0
524 0 550 1 16 0 17 38 17 649 l0 650 62 -26 c306 -124 549 -349 695 -643 63
-127 63 -127 92 -220 57 -184 72 -435 36 -625 -107 -560 -532 -985 -1090
-1089 -130 -25 -329 -25 -464 -2 -179 32 -363 105 -511 202 -97 63 -117 80
-225 189 -196 196 -335 473 -371 740 -3 28 -8 59 -10 70 -10 51 -1 309 11 323
1 1 44 -16 95 -38 158 -69 339 -124 480 -146 25 -3 56 -8 70 -10 14 -2 78 -7
143 -11 l117 -6 0 305 0 304 -66 2 c-176 5 -367 54 -536 137 l-78 37 33 46
c79 112 260 271 402 353 99 58 271 126 365 145 14 3 43 9 65 14 22 4 48 7 58
7 18 -2 19 -28 18 -679z"/>
<path d="M436 8942 c-2 -4 -5 -880 -5 -1945 l1 -1937 21 0 c33 -1 539 -1 565
-1 l22 1 0 650 c0 358 3 650 6 650 12 0 162 -65 214 -93 223 -121 430 -331
557 -567 88 -163 148 -400 152 -597 l1 -43 304 0 304 0 -4 93 c-11 279 -79
548 -200 791 -255 510 -709 882 -1254 1028 -44 12 -80 24 -80 28 0 4 17 10 38
14 57 9 209 59 308 101 152 65 346 181 452 268 296 247 497 526 622 867 33 90
84 292 94 373 3 26 9 67 12 92 8 66 12 203 5 213 -3 4 -140 8 -303 8 l-298 0
-1 -53 c-4 -148 -44 -339 -100 -475 -127 -309 -367 -564 -664 -707 -70 -34
-140 -61 -156 -61 -5 0 -9 288 -9 655 l0 655 -299 0 c-165 0 -302 -4 -305 -8z"/>
</g>
</svg>
