<svg id="Layer_1" data-name="Layer 1" xmlns="http://www.w3.org/2000/svg" xmlns:xlink="http://www.w3.org/1999/xlink" viewBox="0 0 616.8 319"><defs><clipPath id="clip-path"><path d="M409.4,186.2a98,98,0,1,1,65,122.4A98,98,0,0,1,409.4,186.2Zm73.3,93.6a67.5,67.5,0,1,0-44.8-84.3A67.5,67.5,0,0,0,482.7,279.8Z" style="fill:none"/></clipPath><clipPath id="clip-path-2"><path d="M413.1,118.9a98,98,0,1,1-98-98A98,98,0,0,1,413.1,118.9Zm-97.5-68a67.5,67.5,0,1,0,67.5,67.5A67.5,67.5,0,0,0,315.6,50.9Z" style="fill:none"/></clipPath></defs><title>logo</title><g style="clip-path:url(#clip-path)"><path d="M503.1,215l-28.5,93.4c41.3,12.7,83.8-2,108.6-37.4Z" style="fill:#44b2e5"/><path d="M503.1,215l-97.7,1.7c.8,43.2,27.8,79.1,69.2,91.7Z" style="fill:#73c48f"/><path d="M503.1,215l-31.8-92.5c-40.8,14.1-66.7,51-65.9,94.2Z" style="fill:#c51883"/><path d="M503.1,215l78.1-58.9c-26-34.4-69.1-47.6-109.9-33.6Z" style="fill:#485daa"/><path d="M503.1,215l80.1,56c24.8-35.3,24-80.4-2-114.9Z" style="fill:#ede82d"/></g><path d="M524.5,119.9v-.8a97.8,97.8,0,0,0,76.8-95.5v-1H571.1v.9a67.4,67.4,0,0,1-46.6,64.2V22H494.3V216.5h30.2V151.2a67.4,67.4,0,0,1,46.6,64.2v.9h30.2v-1A97.8,97.8,0,0,0,524.5,119.9Z" style="fill:#fff"/><path d="M480.7,185.7a67.6,67.6,0,1,1,0-135.2h.4V20.3h-.4a97.8,97.8,0,0,0,0,195.6h.4V185.6Z" style="fill:#fff"/><path d="M217,23.8V49.1a97.4,97.4,0,0,0-67.9-27.5,90.8,90.8,0,0,0-9.1.5v3h-.1V215.5h30.2V55.2a67.6,67.6,0,0,1,46.6,64.2v.9h.3v94.8h30.3V23.8Z" style="fill:#fff"/><path d="M51.5,118.9v-.8a97.8,97.8,0,0,0,76.8-95.5v-1H98.1v.9A67.4,67.4,0,0,1,51.5,86.8V21H21.3V215.5H51.5V150.2a67.4,67.4,0,0,1,46.6,64.2v.9h30.2v-1A97.8,97.8,0,0,0,51.5,118.9Z" style="fill:#fff"/><g style="clip-path:url(#clip-path-2)"><path d="M315,118.8V21c-43.1,0-79.6,26.5-92.9,67.6Z" style="fill:#44b2e5"/><path d="M315,118.8l93-30.2C394.7,47.5,358.2,21,315,21Z" style="fill:#73c48f"/><path d="M315,118.8l57.5,79.1c34.9-25.4,48.8-68.2,35.5-109.3Z" style="fill:#c51883"/><path d="M315,118.8l-57.4,79.1c34.9,25.4,80,25.4,114.9,0Z" style="fill:#485daa"/><path d="M315,118.8,222.1,88.6c-13.4,41.1.5,83.9,35.5,109.3Z" style="fill:#ede82d"/></g></svg>
